<svg width="12" height="15" viewBox="0 0 12 15" fill="none" xmlns="http://www.w3.org/2000/svg">
<path d="M9.99996 5.33335H9.33329V4.00002C9.33329 2.16002 7.83996 0.666687 5.99996 0.666687C4.15996 0.666687 2.66663 2.16002 2.66663 4.00002V5.33335H1.99996C1.26663 5.33335 0.666626 5.93335 0.666626 6.66669V13.3334C0.666626 14.0667 1.26663 14.6667 1.99996 14.6667H9.99996C10.7333 14.6667 11.3333 14.0667 11.3333 13.3334V6.66669C11.3333 5.93335 10.7333 5.33335 9.99996 5.33335ZM3.99996 4.00002C3.99996 2.89335 4.89329 2.00002 5.99996 2.00002C7.10663 2.00002 7.99996 2.89335 7.99996 4.00002V5.33335H3.99996V4.00002Z" fill="black"/>
</svg>
